<svg width="80" height="80" viewBox="0 0 80 80" fill="none" xmlns="http://www.w3.org/2000/svg">
    <path d="M34.545 45.227v17.728M53.636 45.227v15M53.636 37.045h-19.09v8.182h19.09v-8.181zM30.454 67.045a4.09 4.09 0 1 0 0-8.181 4.09 4.09 0 0 0 0 8.181zM49.545 64.318a4.091 4.091 0 1 0 0-8.182 4.091 4.091 0 0 0 0 8.182z" stroke="#333" stroke-width="1.5" stroke-linecap="round" stroke-linejoin="round"/>
    <path d="M19.546 67.046h-4.091A5.455 5.455 0 0 1 10 61.59V12.5h21.818l6.818 10.91H70v38.18a5.455 5.455 0 0 1-5.454 5.456h-4.092" stroke="#333" stroke-width="1.5" stroke-linecap="round" stroke-linejoin="round"/>
</svg>