<svg width="80" height="80" viewBox="0 0 80 80" fill="none" xmlns="http://www.w3.org/2000/svg">
    <mask id="3i8ecanv1a" fill="#fff">
        <path d="M61.012 28.97v-8.004a2.6 2.6 0 0 1 3.052-2.56l7.435 1.312"/>
    </mask>
    <path d="M62.312 28.97v-8.004h-2.6v8.005h2.6zm1.526-9.284 7.435 1.312.452-2.56-7.435-1.313-.452 2.56zm-1.526 1.28a1.3 1.3 0 0 1 1.526-1.28l.452-2.56a3.9 3.9 0 0 0-4.578 3.84h2.6z" fill="#333" mask="url(#3i8ecanv1a)"/>
    <mask id="03xgfmam6b" fill="#fff">
        <path d="m18.36 51.178.037 7.926a2.6 2.6 0 0 1-3.103 2.563l-6.056-1.193"/>
    </mask>
    <path d="m17.06 51.184.037 7.926 2.6-.012-.038-7.926-2.6.012zm-1.515 9.208L9.49 59.198l-.503 2.551 6.056 1.194.502-2.551zm1.551-1.282a1.3 1.3 0 0 1-1.55 1.282l-.503 2.55a3.9 3.9 0 0 0 4.654-3.844l-2.6.012z" fill="#333" mask="url(#03xgfmam6b)"/>
    <mask id="lfuq521vrc" fill="#fff">
        <path d="M61.735 18.635a30.658 30.658 0 0 1-33.909 49.53"/>
    </mask>
    <path d="M60.797 19.535a29.358 29.358 0 0 1 8.079 17.917l2.591-.214a31.958 31.958 0 0 0-8.794-19.503l-1.876 1.8zm8.079 17.917a29.358 29.358 0 0 1-5.034 18.998l2.145 1.469a31.958 31.958 0 0 0 5.48-20.681l-2.591.214zM63.842 56.45a29.359 29.359 0 0 1-15.89 11.566l.738 2.492a31.958 31.958 0 0 0 17.297-12.59l-2.145-1.468zm-15.89 11.566a29.359 29.359 0 0 1-19.626-1.05l-1 2.4a31.959 31.959 0 0 0 21.364 1.142l-.738-2.492z" fill="#333" mask="url(#lfuq521vrc)"/>
    <mask id="xycrfl1o1d" fill="#fff">
        <path d="M17.517 61.095A30.661 30.661 0 0 1 51.43 11.577"/>
    </mask>
    <path d="M18.457 60.196a29.362 29.362 0 0 1-8.055-17.912l-2.591.212a31.961 31.961 0 0 0 8.767 19.498l1.879-1.798zm-8.055-17.912a29.361 29.361 0 0 1 5.04-18.982l-2.146-1.47a31.962 31.962 0 0 0-5.485 20.664l2.591-.212zm5.04-18.982a29.362 29.362 0 0 1 15.877-11.56l-.74-2.492a31.961 31.961 0 0 0-17.283 12.583l2.145 1.469zm15.877-11.56a29.362 29.362 0 0 1 19.612 1.036l.997-2.401A31.961 31.961 0 0 0 30.58 9.25l.739 2.492z" fill="#333" mask="url(#xycrfl1o1d)"/>
</svg>