<svg width="80" height="80" viewBox="0 0 80 80" fill="none" xmlns="http://www.w3.org/2000/svg">
    <path d="M40 70.805c17.013 0 30.805-13.792 30.805-30.805C70.805 22.987 57.013 9.195 40 9.195 22.987 9.195 9.195 22.987 9.195 40c0 17.013 13.792 30.805 30.805 30.805z" stroke="#333" stroke-width="1.5" stroke-linecap="round" stroke-linejoin="round"/>
    <path d="M40.185 40.186s-7.117 6.532-10.79 6.532a6.531 6.531 0 1 1 0-13.063c3.673 0 10.79 6.531 10.79 6.531zM40.185 40.186s7.12 6.532 10.783 6.532a6.532 6.532 0 1 0 0-13.063c-3.663 0-10.783 6.531-10.783 6.531v0z" stroke="#333" stroke-width="1.5" stroke-linecap="round" stroke-linejoin="round"/>
</svg>