<svg width="80" height="80" viewBox="0 0 80 80" fill="none" xmlns="http://www.w3.org/2000/svg">
    <path clip-rule="evenodd" d="M62.742 28.168V62.74h-25.93v1.441c0 6.331-7.187 7.2-7.203 7.203-4.034 0-7.203-3.17-7.203-7.203v-48.98c0-4.033-3.17-7.202-7.203-7.202h40.336c4.033 0 7.203 3.17 7.203 7.203v12.965z" stroke="#333" stroke-width="1.358"/>
    <path clip-rule="evenodd" d="M36.811 62.741v1.441c0 6.338-7.203 7.203-7.203 7.203h34.574c4.034 0 7.203-3.17 7.203-7.203v-1.44H36.81zM22.406 16.643H8v-1.44C8 11.169 11.17 8 15.203 8v0c4.033 0 7.203 3.17 7.203 7.203v1.44z" stroke="#333" stroke-width="1.358" stroke-linecap="square"/>
    <path fill-rule="evenodd" clip-rule="evenodd" d="m51.217 39.692-5.762-5.762L62.74 16.643c1.73-1.728 4.034-1.728 5.763 0 1.728 1.729 1.728 4.034 0 5.763L51.217 39.692zM35.947 41.133c2.305-2.305 5.762-2.305 8.067 0 2.305 2.305 2.305 5.762 0 8.067-2.017 2.305-10.084 2.017-10.084 2.017s-.288-8.067 2.017-10.084z" fill="#F4F9F7" stroke="#333" stroke-width="1.358" stroke-linecap="square"/>
</svg>