<svg width="80" height="80" viewBox="0 0 80 80" fill="none" xmlns="http://www.w3.org/2000/svg">
    <path d="M66.125 59.313H15a2 2 0 0 0-2 2v6.124a2 2 0 0 0 2 2h51.125a2 2 0 0 0 2-2v-6.124a2 2 0 0 0-2-2zM15.25 55.938l-6.188-27 12.376 10.687 1.125-18.563 10.125 12.375L40 14.875M64.75 55.938l6.188-27-12.376 10.687-1.124-18.563-10.126 12.375L40 14.875M40 14.312a3.375 3.375 0 1 0 0-6.75 3.375 3.375 0 0 0 0 6.75zM59.125 21.062a3.375 3.375 0 1 0 0-6.75 3.375 3.375 0 0 0 0 6.75zM20.875 21.062a3.375 3.375 0 1 0 0-6.75 3.375 3.375 0 0 0 0 6.75zM7.375 28.938a3.375 3.375 0 1 0 0-6.75 3.375 3.375 0 0 0 0 6.75zM72.625 28.938a3.375 3.375 0 1 0 0-6.75 3.375 3.375 0 0 0 0 6.75z" stroke="#333" stroke-width="1.5" stroke-linecap="round" stroke-linejoin="round"/>
</svg>